<mxfile host="app.diagrams.net" modified="2022-01-26T08:40:10.275Z" agent="5.0 (X11; Linux x86_64) AppleWebKit/537.36 (KHTML, like Gecko) Chrome/97.0.4692.99 Safari/537.36" etag="VOrs1P0f6AOKkl62D8uU" version="16.4.7" type="github" pages="2">
  <diagram id="RGXpfQT3tDZtzm0-xO_2" name="Page-1">
    <mxGraphModel dx="2062" dy="1065" grid="1" gridSize="10" guides="1" tooltips="1" connect="1" arrows="1" fold="1" page="1" pageScale="1" pageWidth="850" pageHeight="1100" math="0" shadow="0">
      <root>
        <mxCell id="0" />
        <mxCell id="1" parent="0" />
        <mxCell id="KHljWuH5MT_CBvL4a0tw-12" value="" style="rounded=0;whiteSpace=wrap;html=1;align=left;fillColor=#ffe6cc;strokeColor=#d79b00;" parent="1" vertex="1">
          <mxGeometry x="240" y="40" width="210" height="450" as="geometry" />
        </mxCell>
        <mxCell id="KHljWuH5MT_CBvL4a0tw-1" value="heartOS-manifest" style="rounded=0;whiteSpace=wrap;html=1;" parent="1" vertex="1">
          <mxGeometry x="40" y="40" width="120" height="60" as="geometry" />
        </mxCell>
        <mxCell id="KHljWuH5MT_CBvL4a0tw-2" value="&lt;span style=&quot;color: rgb(10 , 48 , 105) ; font-family: , , &amp;#34;sf mono&amp;#34; , &amp;#34;menlo&amp;#34; , &amp;#34;consolas&amp;#34; , &amp;#34;liberation mono&amp;#34; , monospace ; background-color: rgb(255 , 255 , 255)&quot;&gt;poky&lt;/span&gt;" style="rounded=0;whiteSpace=wrap;html=1;" parent="1" vertex="1">
          <mxGeometry x="280" y="100" width="120" height="60" as="geometry" />
        </mxCell>
        <mxCell id="KHljWuH5MT_CBvL4a0tw-3" value="&lt;span style=&quot;color: rgb(10 , 48 , 105) ; font-family: , , &amp;#34;sf mono&amp;#34; , &amp;#34;menlo&amp;#34; , &amp;#34;consolas&amp;#34; , &amp;#34;liberation mono&amp;#34; , monospace ; background-color: rgb(255 , 255 , 255)&quot;&gt;meta-openembedded&lt;/span&gt;" style="rounded=0;whiteSpace=wrap;html=1;" parent="1" vertex="1">
          <mxGeometry x="320" y="180" width="120" height="60" as="geometry" />
        </mxCell>
        <mxCell id="KHljWuH5MT_CBvL4a0tw-4" value="&lt;span style=&quot;color: rgb(10 , 48 , 105) ; font-family: , , &amp;#34;sf mono&amp;#34; , &amp;#34;menlo&amp;#34; , &amp;#34;consolas&amp;#34; , &amp;#34;liberation mono&amp;#34; , monospace ; background-color: rgb(255 , 255 , 255)&quot;&gt;meta-raspberrypi&lt;/span&gt;" style="rounded=0;whiteSpace=wrap;html=1;" parent="1" vertex="1">
          <mxGeometry x="320" y="260" width="120" height="60" as="geometry" />
        </mxCell>
        <mxCell id="KHljWuH5MT_CBvL4a0tw-6" value="&lt;span style=&quot;color: rgb(10 , 48 , 105) ; font-family: , , &amp;#34;sf mono&amp;#34; , &amp;#34;menlo&amp;#34; , &amp;#34;consolas&amp;#34; , &amp;#34;liberation mono&amp;#34; , monospace ; background-color: rgb(255 , 255 , 255)&quot;&gt;meta-cpan&lt;/span&gt;" style="rounded=0;whiteSpace=wrap;html=1;" parent="1" vertex="1">
          <mxGeometry x="320" y="340" width="120" height="60" as="geometry" />
        </mxCell>
        <mxCell id="KHljWuH5MT_CBvL4a0tw-8" value="&lt;span style=&quot;color: rgb(10, 48, 105); font-size: 12px; font-style: normal; font-weight: 400; letter-spacing: normal; text-indent: 0px; text-transform: none; word-spacing: 0px; background-color: rgb(255, 255, 255); display: inline; float: none;&quot;&gt;meta-mender&lt;/span&gt;" style="rounded=0;whiteSpace=wrap;html=1;" parent="1" vertex="1">
          <mxGeometry x="320" y="420" width="120" height="60" as="geometry" />
        </mxCell>
        <mxCell id="KHljWuH5MT_CBvL4a0tw-17" style="edgeStyle=orthogonalEdgeStyle;rounded=0;orthogonalLoop=1;jettySize=auto;html=1;exitX=1;exitY=0.5;exitDx=0;exitDy=0;entryX=0.017;entryY=0.433;entryDx=0;entryDy=0;entryPerimeter=0;" parent="1" source="KHljWuH5MT_CBvL4a0tw-9" target="KHljWuH5MT_CBvL4a0tw-15" edge="1">
          <mxGeometry relative="1" as="geometry" />
        </mxCell>
        <mxCell id="KHljWuH5MT_CBvL4a0tw-9" value="&lt;span style=&quot;color: rgb(10 , 48 , 105) ; font-family: , , &amp;#34;sf mono&amp;#34; , &amp;#34;menlo&amp;#34; , &amp;#34;consolas&amp;#34; , &amp;#34;liberation mono&amp;#34; , monospace ; background-color: rgb(255 , 255 , 255)&quot;&gt;meta-heartOS&lt;/span&gt;" style="rounded=0;whiteSpace=wrap;html=1;fillColor=#d5e8d4;strokeColor=#82b366;" parent="1" vertex="1">
          <mxGeometry x="240" y="520" width="120" height="70" as="geometry" />
        </mxCell>
        <mxCell id="KHljWuH5MT_CBvL4a0tw-13" value="3rd party" style="text;html=1;strokeColor=none;fillColor=none;align=center;verticalAlign=middle;whiteSpace=wrap;rounded=0;" parent="1" vertex="1">
          <mxGeometry x="250" y="50" width="60" height="30" as="geometry" />
        </mxCell>
        <mxCell id="KHljWuH5MT_CBvL4a0tw-15" value="rpi kernal changes&lt;br&gt;services&lt;br&gt;com module&lt;br&gt;heartware (BioX UI)&lt;br&gt;wifi module&lt;br&gt;etc" style="rounded=0;whiteSpace=wrap;html=1;fillColor=#d5e8d4;strokeColor=#82b366;" parent="1" vertex="1">
          <mxGeometry x="400" y="500" width="120" height="130" as="geometry" />
        </mxCell>
        <mxCell id="KHljWuH5MT_CBvL4a0tw-20" value="" style="edgeStyle=segmentEdgeStyle;endArrow=classic;html=1;rounded=0;exitX=1;exitY=0.5;exitDx=0;exitDy=0;entryX=0;entryY=0.5;entryDx=0;entryDy=0;" parent="1" source="KHljWuH5MT_CBvL4a0tw-1" target="KHljWuH5MT_CBvL4a0tw-9" edge="1">
          <mxGeometry width="50" height="50" relative="1" as="geometry">
            <mxPoint x="400" y="440" as="sourcePoint" />
            <mxPoint x="450" y="390" as="targetPoint" />
            <Array as="points">
              <mxPoint x="210" y="70" />
              <mxPoint x="210" y="555" />
            </Array>
          </mxGeometry>
        </mxCell>
        <mxCell id="KHljWuH5MT_CBvL4a0tw-21" value="" style="edgeStyle=segmentEdgeStyle;endArrow=classic;html=1;rounded=0;exitX=1;exitY=0.5;exitDx=0;exitDy=0;" parent="1" source="KHljWuH5MT_CBvL4a0tw-1" target="KHljWuH5MT_CBvL4a0tw-12" edge="1">
          <mxGeometry width="50" height="50" relative="1" as="geometry">
            <mxPoint x="400" y="440" as="sourcePoint" />
            <mxPoint x="230" y="280" as="targetPoint" />
            <Array as="points">
              <mxPoint x="210" y="70" />
              <mxPoint x="210" y="270" />
            </Array>
          </mxGeometry>
        </mxCell>
      </root>
    </mxGraphModel>
  </diagram>
  <diagram id="g84kJ7uVpb5qampgBmQU" name="Page-2">
    <mxGraphModel dx="2062" dy="1065" grid="1" gridSize="10" guides="1" tooltips="1" connect="1" arrows="1" fold="1" page="1" pageScale="1" pageWidth="850" pageHeight="1100" math="0" shadow="0">
      <root>
        <mxCell id="GeWcEWn7y4cUAgWxGxmX-0" />
        <mxCell id="GeWcEWn7y4cUAgWxGxmX-1" parent="GeWcEWn7y4cUAgWxGxmX-0" />
        <mxCell id="GeWcEWn7y4cUAgWxGxmX-36" value="" style="rounded=0;whiteSpace=wrap;html=1;align=left;fillColor=#ffe6cc;strokeColor=#d79b00;" parent="GeWcEWn7y4cUAgWxGxmX-1" vertex="1">
          <mxGeometry x="240" y="500" width="210" height="560" as="geometry" />
        </mxCell>
        <mxCell id="GeWcEWn7y4cUAgWxGxmX-2" value="" style="rounded=0;whiteSpace=wrap;html=1;align=left;fillColor=#ffe6cc;strokeColor=#d79b00;" parent="GeWcEWn7y4cUAgWxGxmX-1" vertex="1">
          <mxGeometry x="240" y="40" width="210" height="450" as="geometry" />
        </mxCell>
        <mxCell id="GeWcEWn7y4cUAgWxGxmX-3" value="excotye-manifest" style="rounded=0;whiteSpace=wrap;html=1;" parent="GeWcEWn7y4cUAgWxGxmX-1" vertex="1">
          <mxGeometry x="40" y="40" width="120" height="60" as="geometry" />
        </mxCell>
        <mxCell id="GeWcEWn7y4cUAgWxGxmX-4" value="&lt;span style=&quot;color: rgb(10 , 48 , 105) ; font-family: , , &amp;#34;sf mono&amp;#34; , &amp;#34;menlo&amp;#34; , &amp;#34;consolas&amp;#34; , &amp;#34;liberation mono&amp;#34; , monospace ; background-color: rgb(255 , 255 , 255)&quot;&gt;poky&lt;/span&gt;" style="rounded=0;whiteSpace=wrap;html=1;" parent="GeWcEWn7y4cUAgWxGxmX-1" vertex="1">
          <mxGeometry x="280" y="100" width="120" height="60" as="geometry" />
        </mxCell>
        <mxCell id="GeWcEWn7y4cUAgWxGxmX-5" value="&lt;span style=&quot;color: rgb(10 , 48 , 105) ; font-family: , , &amp;#34;sf mono&amp;#34; , &amp;#34;menlo&amp;#34; , &amp;#34;consolas&amp;#34; , &amp;#34;liberation mono&amp;#34; , monospace ; background-color: rgb(255 , 255 , 255)&quot;&gt;meta-openembedded&lt;/span&gt;" style="rounded=0;whiteSpace=wrap;html=1;" parent="GeWcEWn7y4cUAgWxGxmX-1" vertex="1">
          <mxGeometry x="320" y="180" width="120" height="60" as="geometry" />
        </mxCell>
        <mxCell id="GeWcEWn7y4cUAgWxGxmX-6" value="&lt;span style=&quot;color: rgb(10 , 48 , 105) ; font-family: , , &amp;#34;sf mono&amp;#34; , &amp;#34;menlo&amp;#34; , &amp;#34;consolas&amp;#34; , &amp;#34;liberation mono&amp;#34; , monospace ; background-color: rgb(255 , 255 , 255)&quot;&gt;meta-raspberrypi&lt;/span&gt;" style="rounded=0;whiteSpace=wrap;html=1;" parent="GeWcEWn7y4cUAgWxGxmX-1" vertex="1">
          <mxGeometry x="320" y="260" width="120" height="60" as="geometry" />
        </mxCell>
        <mxCell id="GeWcEWn7y4cUAgWxGxmX-7" value="&lt;span style=&quot;color: rgb(10 , 48 , 105) ; font-family: , , &amp;#34;sf mono&amp;#34; , &amp;#34;menlo&amp;#34; , &amp;#34;consolas&amp;#34; , &amp;#34;liberation mono&amp;#34; , monospace ; background-color: rgb(255 , 255 , 255)&quot;&gt;meta-cpan&lt;/span&gt;" style="rounded=0;whiteSpace=wrap;html=1;" parent="GeWcEWn7y4cUAgWxGxmX-1" vertex="1">
          <mxGeometry x="320" y="340" width="120" height="60" as="geometry" />
        </mxCell>
        <mxCell id="GeWcEWn7y4cUAgWxGxmX-8" value="&lt;span style=&quot;color: rgb(10, 48, 105); font-size: 12px; font-style: normal; font-weight: 400; letter-spacing: normal; text-indent: 0px; text-transform: none; word-spacing: 0px; background-color: rgb(255, 255, 255); display: inline; float: none;&quot;&gt;meta-mender&lt;/span&gt;" style="rounded=0;whiteSpace=wrap;html=1;" parent="GeWcEWn7y4cUAgWxGxmX-1" vertex="1">
          <mxGeometry x="320" y="420" width="120" height="60" as="geometry" />
        </mxCell>
        <mxCell id="GeWcEWn7y4cUAgWxGxmX-10" value="&lt;span style=&quot;color: rgb(10 , 48 , 105) ; font-family: , , &amp;#34;sf mono&amp;#34; , &amp;#34;menlo&amp;#34; , &amp;#34;consolas&amp;#34; , &amp;#34;liberation mono&amp;#34; , monospace ; background-color: rgb(255 , 255 , 255)&quot;&gt;&lt;b&gt;meta-exocyte&amp;nbsp;&lt;br&gt;&lt;/b&gt;com-module &lt;br&gt;ui etc&lt;br&gt;&lt;/span&gt;" style="rounded=0;whiteSpace=wrap;html=1;fillColor=#d5e8d4;strokeColor=#82b366;" parent="GeWcEWn7y4cUAgWxGxmX-1" vertex="1">
          <mxGeometry x="305" y="520" width="120" height="70" as="geometry" />
        </mxCell>
        <mxCell id="GeWcEWn7y4cUAgWxGxmX-11" value="3rd party" style="text;html=1;strokeColor=none;fillColor=none;align=center;verticalAlign=middle;whiteSpace=wrap;rounded=0;" parent="GeWcEWn7y4cUAgWxGxmX-1" vertex="1">
          <mxGeometry x="250" y="50" width="60" height="30" as="geometry" />
        </mxCell>
        <mxCell id="GeWcEWn7y4cUAgWxGxmX-13" value="" style="edgeStyle=segmentEdgeStyle;endArrow=classic;html=1;rounded=0;exitX=1;exitY=0.5;exitDx=0;exitDy=0;entryX=-0.005;entryY=0.582;entryDx=0;entryDy=0;entryPerimeter=0;" parent="GeWcEWn7y4cUAgWxGxmX-1" source="GeWcEWn7y4cUAgWxGxmX-3" target="GeWcEWn7y4cUAgWxGxmX-36" edge="1">
          <mxGeometry width="50" height="50" relative="1" as="geometry">
            <mxPoint x="400" y="440" as="sourcePoint" />
            <mxPoint x="230" y="740" as="targetPoint" />
            <Array as="points">
              <mxPoint x="210" y="70" />
              <mxPoint x="210" y="826" />
            </Array>
          </mxGeometry>
        </mxCell>
        <mxCell id="GeWcEWn7y4cUAgWxGxmX-14" value="" style="edgeStyle=segmentEdgeStyle;endArrow=classic;html=1;rounded=0;exitX=1;exitY=0.5;exitDx=0;exitDy=0;" parent="GeWcEWn7y4cUAgWxGxmX-1" source="GeWcEWn7y4cUAgWxGxmX-3" target="GeWcEWn7y4cUAgWxGxmX-2" edge="1">
          <mxGeometry width="50" height="50" relative="1" as="geometry">
            <mxPoint x="400" y="440" as="sourcePoint" />
            <mxPoint x="230" y="280" as="targetPoint" />
            <Array as="points">
              <mxPoint x="210" y="70" />
              <mxPoint x="210" y="270" />
            </Array>
          </mxGeometry>
        </mxCell>
        <mxCell id="GeWcEWn7y4cUAgWxGxmX-21" value="" style="endArrow=none;html=1;rounded=0;fillColor=#e51400;strokeColor=#B20000;strokeWidth=4;exitX=0;exitY=0;exitDx=0;exitDy=0;entryX=1;entryY=1;entryDx=0;entryDy=0;" parent="GeWcEWn7y4cUAgWxGxmX-1" edge="1">
          <mxGeometry width="50" height="50" relative="1" as="geometry">
            <mxPoint x="320" y="340" as="sourcePoint" />
            <mxPoint x="440" y="400" as="targetPoint" />
          </mxGeometry>
        </mxCell>
        <mxCell id="GeWcEWn7y4cUAgWxGxmX-22" value="" style="endArrow=none;html=1;rounded=0;fillColor=#e51400;strokeColor=#B20000;strokeWidth=4;exitX=0;exitY=1;exitDx=0;exitDy=0;entryX=1;entryY=0;entryDx=0;entryDy=0;" parent="GeWcEWn7y4cUAgWxGxmX-1" source="GeWcEWn7y4cUAgWxGxmX-7" target="GeWcEWn7y4cUAgWxGxmX-7" edge="1">
          <mxGeometry width="50" height="50" relative="1" as="geometry">
            <mxPoint x="330" y="350" as="sourcePoint" />
            <mxPoint x="450" y="410" as="targetPoint" />
          </mxGeometry>
        </mxCell>
        <mxCell id="GeWcEWn7y4cUAgWxGxmX-24" value="&lt;span style=&quot;color: rgb(10 , 48 , 105) ; font-family: , , &amp;#34;sf mono&amp;#34; , &amp;#34;menlo&amp;#34; , &amp;#34;consolas&amp;#34; , &amp;#34;liberation mono&amp;#34; , monospace ; background-color: rgb(255 , 255 , 255)&quot;&gt;&lt;b&gt;meta-connectivity&lt;/b&gt;&lt;br&gt;wifi module and control&lt;br&gt;&lt;/span&gt;" style="rounded=0;whiteSpace=wrap;html=1;fillColor=#d5e8d4;strokeColor=#82b366;" parent="GeWcEWn7y4cUAgWxGxmX-1" vertex="1">
          <mxGeometry x="305" y="620" width="120" height="70" as="geometry" />
        </mxCell>
        <mxCell id="GeWcEWn7y4cUAgWxGxmX-25" value="&lt;span style=&quot;color: rgb(10 , 48 , 105) ; font-family: , , &amp;#34;sf mono&amp;#34; , &amp;#34;menlo&amp;#34; , &amp;#34;consolas&amp;#34; , &amp;#34;liberation mono&amp;#34; , monospace ; background-color: rgb(255 , 255 , 255)&quot;&gt;&lt;b&gt;meta-hardware&lt;br&gt;&lt;/b&gt;changes that was rpi spefiec&lt;br&gt;&lt;/span&gt;" style="rounded=0;whiteSpace=wrap;html=1;fillColor=#d5e8d4;strokeColor=#82b366;" parent="GeWcEWn7y4cUAgWxGxmX-1" vertex="1">
          <mxGeometry x="305" y="720" width="120" height="70" as="geometry" />
        </mxCell>
        <mxCell id="GeWcEWn7y4cUAgWxGxmX-27" value="shared with biox and other project. Upgrade to one is easily shared" style="shape=note;strokeWidth=2;fontSize=14;size=20;whiteSpace=wrap;html=1;fillColor=#fff2cc;strokeColor=#d6b656;fontColor=#666600;" parent="GeWcEWn7y4cUAgWxGxmX-1" vertex="1">
          <mxGeometry x="480" y="620" width="150" height="100" as="geometry" />
        </mxCell>
        <mxCell id="GeWcEWn7y4cUAgWxGxmX-28" value="kernel changes, boot changes etc. So if there is a hardware change easy to switch in and out" style="shape=note;strokeWidth=2;fontSize=14;size=20;whiteSpace=wrap;html=1;fillColor=#fff2cc;strokeColor=#d6b656;fontColor=#666600;" parent="GeWcEWn7y4cUAgWxGxmX-1" vertex="1">
          <mxGeometry x="480" y="730" width="150" height="100" as="geometry" />
        </mxCell>
        <mxCell id="GeWcEWn7y4cUAgWxGxmX-29" value="kernel changes, boot changes etc. So if there is a hardware change easy to switch in and out" style="shape=note;strokeWidth=2;fontSize=14;size=20;whiteSpace=wrap;html=1;fillColor=#fff2cc;strokeColor=#d6b656;fontColor=#666600;" parent="GeWcEWn7y4cUAgWxGxmX-1" vertex="1">
          <mxGeometry x="480" y="500" width="150" height="100" as="geometry" />
        </mxCell>
        <mxCell id="GeWcEWn7y4cUAgWxGxmX-30" value="&lt;span style=&quot;color: rgb(10 , 48 , 105) ; font-family: , , &amp;#34;sf mono&amp;#34; , &amp;#34;menlo&amp;#34; , &amp;#34;consolas&amp;#34; , &amp;#34;liberation mono&amp;#34; , monospace ; background-color: rgb(255 , 255 , 255)&quot;&gt;&lt;b&gt;meta-shared?&lt;br&gt;&lt;/b&gt;changes that was rpi spefiec&lt;br&gt;&lt;/span&gt;" style="rounded=0;whiteSpace=wrap;html=1;fillColor=#d5e8d4;strokeColor=#82b366;" parent="GeWcEWn7y4cUAgWxGxmX-1" vertex="1">
          <mxGeometry x="305" y="840" width="120" height="70" as="geometry" />
        </mxCell>
        <mxCell id="GeWcEWn7y4cUAgWxGxmX-31" value="services etc shared with biox.&lt;br&gt;" style="shape=note;strokeWidth=2;fontSize=14;size=20;whiteSpace=wrap;html=1;fillColor=#fff2cc;strokeColor=#d6b656;fontColor=#666600;" parent="GeWcEWn7y4cUAgWxGxmX-1" vertex="1">
          <mxGeometry x="480" y="850" width="150" height="100" as="geometry" />
        </mxCell>
        <mxCell id="GeWcEWn7y4cUAgWxGxmX-32" value="&lt;span style=&quot;color: rgb(10 , 48 , 105) ; font-family: , , &amp;#34;sf mono&amp;#34; , &amp;#34;menlo&amp;#34; , &amp;#34;consolas&amp;#34; , &amp;#34;liberation mono&amp;#34; , monospace ; background-color: rgb(255 , 255 , 255)&quot;&gt;&lt;b&gt;meta-camera?&lt;br&gt;&lt;/b&gt;changes that was rpi spefiec&lt;br&gt;&lt;/span&gt;" style="rounded=0;whiteSpace=wrap;html=1;fillColor=#d5e8d4;strokeColor=#82b366;" parent="GeWcEWn7y4cUAgWxGxmX-1" vertex="1">
          <mxGeometry x="305" y="970" width="120" height="70" as="geometry" />
        </mxCell>
        <mxCell id="GeWcEWn7y4cUAgWxGxmX-33" value="if camera are shared with biox that can be places here." style="shape=note;strokeWidth=2;fontSize=14;size=20;whiteSpace=wrap;html=1;fillColor=#fff2cc;strokeColor=#d6b656;fontColor=#666600;" parent="GeWcEWn7y4cUAgWxGxmX-1" vertex="1">
          <mxGeometry x="480" y="960" width="150" height="100" as="geometry" />
        </mxCell>
        <mxCell id="GeWcEWn7y4cUAgWxGxmX-38" value="cellink" style="text;html=1;strokeColor=none;fillColor=none;align=center;verticalAlign=middle;whiteSpace=wrap;rounded=0;" parent="GeWcEWn7y4cUAgWxGxmX-1" vertex="1">
          <mxGeometry x="240" y="500" width="60" height="30" as="geometry" />
        </mxCell>
        <mxCell id="GeWcEWn7y4cUAgWxGxmX-39" value="cpan need for perl as slic3er needs perl. Is it still needed?" style="shape=note;strokeWidth=2;fontSize=14;size=20;whiteSpace=wrap;html=1;fillColor=#fff2cc;strokeColor=#d6b656;fontColor=#666600;" parent="GeWcEWn7y4cUAgWxGxmX-1" vertex="1">
          <mxGeometry x="480" y="330" width="150" height="100" as="geometry" />
        </mxCell>
      </root>
    </mxGraphModel>
  </diagram>
</mxfile>
